<svg id="Layer_1" data-name="Layer 1" xmlns="http://www.w3.org/2000/svg" viewBox="0 0 92.75 145.85" style=""><defs><style>.cls-1{fill:none;stroke:#000;stroke-miterlimit:10;stroke-width:0.25px;fill-rule:evenodd;}</style></defs><title>cc</title><path class="cls-1 gRBxxdHj_0" d="M276,83.41c-.52,2.41-1,4.82-1.48,7.24s-.78,4.75-1.11,7.14c-.29,2.1-.54,4.21-.74,6.31-.18,1.84-.33,3.68-.4,5.53-.11,2.8-.19,5.6-.18,8.4,0,2.09.15,4.18.3,6.26.14,1.87.33,3.75.59,5.6a65.83,65.83,0,0,0,5.39,19.24,32.41,32.41,0,0,0,5.42,8.28,17.54,17.54,0,0,0,6.87,4.78,13.37,13.37,0,0,0,6.08.75,18.82,18.82,0,0,0,8.27-3.14,35.45,35.45,0,0,0,6.23-5.24l.09-.12-.37-.42a.63.63,0,0,1-.09-.8,61.19,61.19,0,0,1,4.17-7c.86-1.28,1.72-2.56,2.61-3.82a1.43,1.43,0,0,0,.19-1.6,1.09,1.09,0,0,1,.15-1.2q7.07-9,14.11-18a2.16,2.16,0,0,1,1.65-.77,1.58,1.58,0,0,0,1.25-.67,10.07,10.07,0,0,1,.84-1,2.06,2.06,0,0,1,1.52-.8,1.46,1.46,0,0,0,1.08-.64c.19-.23.37-.48.58-.7a1.2,1.2,0,0,1,1.73-.25,14.9,14.9,0,0,1,1.23.88l3.63,2.75a2.84,2.84,0,0,1,1.09,1.31V122a4.09,4.09,0,0,1-.89,1.43,1.09,1.09,0,0,0-.28,1,2.42,2.42,0,0,1-.53,2c-.27.34-.53.68-.79,1a1.45,1.45,0,0,0-.32,1c0,.41,0,.82.06,1.22a.84.84,0,0,1-.22.63l-7.06,9-7.25,9.26a.59.59,0,0,1-.5.25c-.34,0-.68,0-1,.07a1.38,1.38,0,0,0-1,.51c-.65.77-1.3,1.54-2,2.27-2.19,2.24-4.41,4.46-6.61,6.7a.64.64,0,0,1-.86.18c-.27-.15-.43,0-.62.16a53.52,53.52,0,0,1-5.34,5,41.84,41.84,0,0,1-12.16,7.09,31.14,31.14,0,0,1-8.36,1.85l-1.48.13h-1.85a2.62,2.62,0,0,0-.4-.06,26.46,26.46,0,0,1-5.69-.86,29.24,29.24,0,0,1-12.61-7,40.32,40.32,0,0,1-9.34-13.42,64.38,64.38,0,0,1-5.08-20.85c-.16-1.85-.2-3.71-.29-5.57,0-.15,0-.29-.06-.43v-3.89c0-.22,0-.43.06-.65.11-2.65.18-5.3.34-8,.15-2.38.37-4.76.63-7.14s.54-4.58.91-6.85q.69-4.15,1.57-8.26a121.13,121.13,0,0,1,5-17.19,100,100,0,0,1,9.85-19.76,68.76,68.76,0,0,1,13.53-15.5,46.35,46.35,0,0,1,12.13-7.41,35.63,35.63,0,0,1,11-2.62l1.51-.12h1.84l1.29.14a14.2,14.2,0,0,1,7.84,3.09A14.89,14.89,0,0,1,326,36.56a25.17,25.17,0,0,1,1.48,6.06,40.29,40.29,0,0,1,.23,7.19,58.81,58.81,0,0,1-1,8.19A79.23,79.23,0,0,1,322,73.4a65.24,65.24,0,0,1-5.18,9.89c-.69,1.08-1.52,2.08-2.29,3.11l-.08,0,7.24-13.91-.07,0L310.91,89.09l-.05,0,6.3-12.14-.11-.06-7.67,11.94-.06,0,12.14-23.34-.08,0L309.9,83.18l0,0,6.47-12.52-.07,0-8.76,13.59,0,0L319.06,61.8l-.07,0L305.27,83l-.05,0,7.67-14.77-.07,0-13,20.12-.06,0L311,66.61l-.08,0-5.33,8.28,0,0c.49-1.18,1-2.35,1.48-3.54a116.14,116.14,0,0,0,5.26-15.92A52.1,52.1,0,0,0,313.64,48a42.05,42.05,0,0,0,.19-4.5,12.18,12.18,0,0,0-1.05-5.11A5.46,5.46,0,0,0,308.23,35a12.35,12.35,0,0,0-4.68.45,18.25,18.25,0,0,0-6.89,3.76,36.93,36.93,0,0,0-7.25,8.52,79,79,0,0,0-6.95,13.87,131.38,131.38,0,0,0-5.71,18.26q-.41,1.76-.8,3.53" transform="translate(-254.04 -26.98)"></path><style>.gRBxxdHj_0{stroke-dasharray:884 886;stroke-dashoffset:885;animation:gRBxxdHj_draw 3000ms ease-in-out 0ms forwards;}@keyframes gRBxxdHj_draw{100%{stroke-dashoffset:0;}}@keyframes gRBxxdHj_fade{0%{stroke-opacity:1;}94.44444444444444%{stroke-opacity:1;}100%{stroke-opacity:0;}}</style></svg>